<?xml version="1.0" encoding="utf-8"?>
<!-- Generator: Adobe Illustrator 24.2.1, SVG Export Plug-In . SVG Version: 6.00 Build 0)  -->
<svg version="1.1" id="Layer_1" xmlns="http://www.w3.org/2000/svg" xmlns:xlink="http://www.w3.org/1999/xlink" x="0px" y="0px"
	 viewBox="0 0 302 242" style="enable-background:new 0 0 302 242;" xml:space="preserve">
<style type="text/css">
	.st0{fill-rule:evenodd;clip-rule:evenodd;fill:#E7EFFE;}
	.st1{fill-rule:evenodd;clip-rule:evenodd;fill:#FFFFFF;stroke:#4285F4;stroke-width:2.5;stroke-linejoin:round;}
	.st2{fill:none;stroke:#4285F4;stroke-width:2.5;stroke-linecap:round;stroke-linejoin:round;}
	.st3{fill:none;stroke:#4285F4;stroke-width:2.5;stroke-linecap:round;}
	.st4{fill:#E7EFFE;}
</style>
<g>
	<path class="st0" d="M283.3,63.1c6.7,0,12.1,5.4,12.1,12.1c0,6.7-5.4,12.1-12.1,12.1h-69.2c6.7,0,12.1,5.4,12.1,12.1
		c0,6.7-5.4,12.1-12.1,12.1h38c6.7,0,12.1,5.4,12.1,12.1c0,6.7-5.4,12.1-12.1,12.1h-17.6c-8.4,0-15.3,5.4-15.3,12.1
		c0,4.5,3.5,8.5,10.4,12.1c6.7,0,12.1,5.4,12.1,12.1c0,6.7-5.4,12.1-12.1,12.1H86.2c-6.7,0-12.1-5.4-12.1-12.1
		c0-6.7,5.4-12.1,12.1-12.1H18.7c-6.7,0-12.1-5.4-12.1-12.1c0-6.7,5.4-12.1,12.1-12.1h69.2c6.7,0,12.1-5.4,12.1-12.1
		c0-6.7-5.4-12.1-12.1-12.1H44.7c-6.7,0-12.1-5.4-12.1-12.1c0-6.7,5.4-12.1,12.1-12.1h69.2c-6.7,0-12.1-5.4-12.1-12.1
		c0-6.7,5.4-12.1,12.1-12.1H283.3z M283.3,111.5c6.7,0,12.1,5.4,12.1,12.1c0,6.7-5.4,12.1-12.1,12.1c-6.7,0-12.1-5.4-12.1-12.1
		C271.2,116.9,276.6,111.5,283.3,111.5z"/>
	<path class="st1" d="M98.2,181.1l2.6-0.1v36.3c0,0.8,0.7,1.5,1.5,1.5h89.6c0.8,0,1.5-0.7,1.5-1.5V92.7c0-3-2.5-5.5-5.5-5.5h-81.7
		c-3,0-5.5,2.4-5.5,5.5v25.9l-2.6-0.1c-0.3,0-0.6,0-0.9,0c-15.6,0-28.4,14-28.4,31.3s12.8,31.3,28.4,31.3
		C97.6,181.1,97.9,181.1,98.2,181.1z M98.4,169.1c-0.4,0-0.8,0-1.2,0c-9.4,0-16.9-8.7-16.9-19.4s7.5-19.4,16.9-19.4
		c0.4,0,0.8,0,1.2,0l2.3,0.2v38.3L98.4,169.1z"/>
	<path class="st2" d="M179.5,98v31.7 M179.5,139.5v8.2V139.5z"/>
	<path class="st2" d="M41.4,205h11.9 M238.5,205h5 M203.7,205h26.7 M63.7,205h30.2"/>
	<path class="st3" d="M146.7,11.1c-4.6,7.3-6.9,13.6-6.9,19c0,9.6,8,13.9,8,24.3c0,5.3-2.7,10.5-8,15.7"/>
	<path class="st3" d="M125.9,30.2c-1.5,9.5,5.2,11.3,5.2,19.9c0,4.3-1.7,8.7-5.2,13"/>
	<path class="st3" d="M158.4,25.8c-2.3,5.9-1,9.5,0,11.6c2.1,4.5,5.5,8.5,5.5,13.1c0,5.4-1.8,10.5-5.5,15.5"/>
	<path class="st4" d="M106.9,95.6c0-0.8,0.6-1.4,1.4-1.4h33.1v119.4h-33.1c-0.8,0-1.4-0.6-1.4-1.4V95.6z"/>
</g>
</svg>
