<?xml version="1.0" encoding="utf-8"?>
<!-- Generator: Adobe Illustrator 24.2.1, SVG Export Plug-In . SVG Version: 6.00 Build 0)  -->
<svg version="1.1" id="Camada_1" xmlns="http://www.w3.org/2000/svg" xmlns:xlink="http://www.w3.org/1999/xlink" x="0px" y="0px"
	 viewBox="0 0 1935.8 798.3" style="enable-background:new 0 0 1935.8 798.3;" xml:space="preserve">
<style type="text/css">
	.st0{opacity:0.5;fill-rule:evenodd;clip-rule:evenodd;fill:url(#SVGID_1_);}
	.st1{fill:#BD1823;}
	.st2{fill:#490D14;}
	.st3{fill-rule:evenodd;clip-rule:evenodd;fill:none;stroke:#E53B12;stroke-width:5;stroke-miterlimit:10;}
	.st4{fill:none;stroke:#39A7DF;stroke-width:2;stroke-miterlimit:10;}
	.st5{opacity:0.77;}
	.st6{fill:#1E72B8;}
	.st7{fill:#39A7DF;}
	.st8{fill:#189CD8;}
	.st9{opacity:0.77;fill:#189CD8;}
	.st10{fill:#E53B12;}
	.st11{fill:#476EB3;}
	.st12{fill:#00A04C;}
	.st13{fill-rule:evenodd;clip-rule:evenodd;fill:#00A04C;}
	.st14{opacity:0.8;fill-rule:evenodd;clip-rule:evenodd;fill:url(#SVGID_2_);}
	.st15{fill:#253785;}
	.st16{fill:#394B9A;}
	.st17{opacity:0.2;}
	.st18{fill-rule:evenodd;clip-rule:evenodd;fill:#026634;}
	.st19{fill:#93C021;}
	.st20{fill-rule:evenodd;clip-rule:evenodd;fill:#008C39;}
	.st21{fill:#104A27;}
</style>
<g>
	<linearGradient id="SVGID_1_" gradientUnits="userSpaceOnUse" x1="94.7297" y1="359.5415" x2="307.749" y2="359.5415">
		<stop  offset="0" style="stop-color:#2A3180"/>
		<stop  offset="0.3795" style="stop-color:#2A3180;stop-opacity:0"/>
		<stop  offset="0.7511" style="stop-color:#2A3180"/>
	</linearGradient>
	<path class="st0" d="M175.4,530c2.4-0.5,5-0.5,7.4,0.1c9.1,2.2,17.6,6.9,25.6,11.6c10.3,6.1,20.7,12.1,31.2,17.6
		c6.4,1.9,12.6,4.1,18.8,6.8c6.6,2.8,13.1,6.6,18.7,11.3c0.7,0.3,1.3,0.6,2,0.9c9.1,0.9,18.4,2.1,27.2,4.7c0.5,0.2,1,0.3,1.5,0.5
		V135.7L232.6,164L94.7,215.9v74l80.6-30.6V530z"/>
	<path class="st1" d="M161.4,397.7l-147.9-53c-1.9-0.7-3.2-2.5-3.2-4.5c0-2,1.2-3.8,3.1-4.5l147.9-54.3V397.7z M17.5,340.2
		l138.3,49.6V289.4L17.5,340.2z"/>
	<path class="st1" d="M9.8,473.7l1.3-137.8l154.5,57.4L9.8,473.7z M16.6,344l-1.1,120.5l136.2-70.3L16.6,344z"/>
	<polygon class="st1" points="161.4,496.6 12.2,473 13.1,467.4 155.8,490.1 155.8,393.8 161.4,393.8 	"/>
	<polygon class="st1" points="11.3,583.9 10.3,469.1 15.9,469 16.8,567.1 81,480.2 85.5,483.5 	"/>
	<path class="st1" d="M161.4,621L77.9,478.2l83.5,12.8V621z M88.7,485.5l67.2,114.8V495.8L88.7,485.5z"/>
	<path class="st1" d="M164.3,614.8l-155-35l74.2-103.1L164.3,614.8z M18.8,576.2L153,606.5L83,487L18.8,576.2z"/>
	<path class="st1" d="M161.9,703L10,574.8l151.4,33.7L161.9,703z M31,585.2l125.3,105.7l-0.4-78L31,585.2z"/>
	<path class="st1" d="M160.2,774.5l-2.2-0.5l0,0.1l-0.3-0.1c-0.5-0.1-1-0.2-1.6-0.4l-7.4-1.6c-13.9-3-20.8-5.3-32.2-9
		c-2.2-0.7-4.5-1.5-7.1-2.3l1.7-5.3c2.6,0.8,4.9,1.6,7.1,2.3c11.2,3.6,17.9,5.8,31.4,8.8c1,0.1,2.2,0.3,3.9,0.7
		c0.4,0.1,3.7,0.8,4.4,1.1l0.5,0.2c0.1,0,0.3,0.1,0.5,0.1l0.3,0.1l0,0.1l1,0.3l-0.8,4.7L160.2,774.5z"/>
	<circle class="st2" cx="83.3" cy="481.8" r="7"/>
	<circle class="st2" cx="158.6" cy="610.7" r="7"/>
	<circle class="st2" cx="13.9" cy="339.9" r="7"/>
	<circle class="st2" cx="13.9" cy="468.7" r="7"/>
	<circle class="st2" cx="158.6" cy="393.8" r="7"/>
	<circle class="st2" cx="156.2" cy="769.1" r="7"/>
	<circle class="st2" cx="158.8" cy="284.3" r="7"/>
	<circle class="st2" cx="14" cy="578" r="6.2"/>
	<circle class="st2" cx="159.1" cy="698.1" r="6.2"/>
	<g>
		<path class="st1" d="M62.6,731.3L2.6,677.1l31.3-53L62.6,731.3z M9.8,676l42.5,38.4l-20.3-76L9.8,676z"/>
		<circle class="st2" cx="6.2" cy="676.5" r="6.2"/>
		<circle class="st2" cx="59.6" cy="727.3" r="6.2"/>
		<path class="st2" d="M26.5,629.3c0.8-8.3,11.4-8.7,12.8-0.4C38.5,637.1,27.9,637.5,26.5,629.3z"/>
	</g>
	<circle class="st2" cx="107.2" cy="755.9" r="6.2"/>
	<path class="st3" d="M158.6,741.2"/>
	<path class="st4" d="M175.4,675.4"/>
	<g class="st5">
		<polygon class="st6" points="95.3,215.3 177.1,258.8 94.7,289.9 		"/>
		<path class="st7" d="M93.6,291.5l0.6-78.1l85.6,45.5L93.6,291.5z M96.4,217.2l-0.6,71.1l78.5-29.7L96.4,217.2z"/>
	</g>
	<g>
		<polygon class="st6" points="204.8,174.5 177.1,258.8 95.3,215.3 		"/>
		<path class="st7" d="M177.7,260.4l-85.1-45.2l114-42.6L177.7,260.4z M98,215.5l78.4,41.7l26.6-80.8L98,215.5z"/>
	</g>
	<g>
		<polygon class="st6" points="307.7,135.7 204.8,174.5 307.2,235.3 		"/>
		<path class="st7" d="M308.4,237.2l-106.1-63l106.6-40.1L308.4,237.2z M207.4,174.7l98.7,58.6l0.5-96L207.4,174.7z"/>
	</g>
	<g class="st5">
		<polygon class="st6" points="177.1,258.8 204.8,174.5 307.2,235.3 		"/>
		<path class="st7" d="M175.4,260.2l28.8-87.4l106.2,63L175.4,260.2z M205.4,176.1l-26.7,81.2l125.4-22.7L205.4,176.1z"/>
	</g>
	<g class="st5">
		<polygon class="st6" points="307.2,235.3 232.6,305.7 307.7,375 		"/>
		<path class="st7" d="M308.8,377.5l-77.9-71.8l77.4-73L308.8,377.5z M234.2,305.7l72.3,66.7l-0.4-134.5L234.2,305.7z"/>
	</g>
	<g>
		<polygon class="st6" points="176.8,331.8 232.6,305.7 307.2,235.3 176.8,259 		"/>
		<path class="st7" d="M175.7,333.6l0-75.5l135.1-24.6L233,306.7L175.7,333.6z M177.9,260l0,70.1l54-25.3l71.8-67.7L177.9,260z"/>
	</g>
	<g class="st5">
		<polygon class="st6" points="307.7,375 176.7,381.2 176.8,331.8 232.6,305.7 		"/>
		<path class="st7" d="M175.6,382.4l0-51.3l57.1-26.8l77.6,71.6L175.6,382.4z M177.9,332.5l0,47.5l127.1-6.1l-72.6-67L177.9,332.5z"
			/>
	</g>
	<path class="st8" d="M258.4,787.7c-13.9,0-28.4-1-43.9-3l0.7-5.6c32.7,4.1,60.7,3.9,88-0.9c-0.2-34.6-0.3-66.4-0.4-97.2
		c-0.1-28.5-0.2-58-0.3-89.9l5.6,0c0.2,32,0.2,61.4,0.3,89.9c0.1,31.5,0.2,64,0.4,99.5l0,2.3l-2.3,0.4
		C291,786.3,275.1,787.7,258.4,787.7z"/>
	<g>
		<polygon class="st6" points="307.7,469.2 175.4,527.6 307.1,591.4 		"/>
		<path class="st7" d="M308.2,593.2l-135.5-65.6l136.2-60.1L308.2,593.2z M178,527.7l128,62l0.6-118.7L178,527.7z"/>
	</g>
	<g class="st5">
		<polygon class="st6" points="176.7,381.2 307.7,469.2 175.4,527.6 		"/>
		<path class="st7" d="M174.2,529.4l1.4-150.2l134.4,90.3L174.2,529.4z M177.8,383.3l-1.3,142.6L305.4,469L177.8,383.3z"/>
	</g>
	<polygon class="st9" points="172.5,680.6 173.9,529 179.5,529 178.2,670.3 305.6,589.1 308.6,593.8 	"/>
	<g>
		<polygon class="st6" points="307.7,375 176.7,381.2 307.7,469.2 		"/>
		<path class="st7" d="M308.9,471.3l-135.6-91l135.6-6.5V471.3z M180.2,382.2l126.5,84.9v-91L180.2,382.2z"/>
	</g>
	<path class="st10" d="M653.7,741.2l59.5-81.8h79.9c19,0,41.4,0,56.6,1c-8.6-11.4-21.9-30.9-32.4-46.2L760.3,530L610.9,741.2H494.3
		l204.1-287.9c13.3-18.6,32.8-35.7,63.8-35.7c29.5,0,49,15.7,62.8,35.7l198.9,287.9H653.7z"/>
	<path class="st11" d="M1272.3,741.2h-213.2V542.8h99v116.6h114.2c54.7,0,94.2-30.5,94.2-76.1c0-44.7-40.9-77.6-94.2-77.6h-213.2
		l62.8-82.8h150.3c111.3,0,191.7,64.2,191.7,156.1C1464,671.3,1382.7,741.2,1272.3,741.2z"/>
	<path class="st12" d="M1809,549.9c77.6,0,119.4,29,119.4,87.1c0,65.2-39.5,104.2-136.6,104.2h-296.4l63.3-81.8h240.7
		c23.3,0,33.8-6.7,33.8-23.3c0-16.2-10.5-22.8-33.8-22.8h-173.2c-81.8,0-119.4-36.6-119.4-91.4c0-60,40-99,136.6-99h276.4
		l-63.3,82.8h-220.8c-22.8,0-33.8,5.7-33.8,21.9c0,16.2,10.9,22.4,33.8,22.4H1809z"/>
	<path class="st13" d="M232.6,6.6v139.5l91.9-34.6v669.4c46.1-4.9,91.5-15.9,134.9-33v-94.2V551.6V70.4V27.1V6.6H232.6z"/>
	<linearGradient id="SVGID_2_" gradientUnits="userSpaceOnUse" x1="232.5577" y1="393.7595" x2="459.3816" y2="393.7595">
		<stop  offset="0" style="stop-color:#026634"/>
		<stop  offset="0.3795" style="stop-color:#026634;stop-opacity:0.8"/>
		<stop  offset="0.4783" style="stop-color:#04542C;stop-opacity:0.8"/>
		<stop  offset="0.6689" style="stop-color:#0A2618;stop-opacity:0.8"/>
	</linearGradient>
	<path class="st14" d="M232.6,6.6v139.5l91.9-34.6v669.4c46.1-4.9,91.5-15.9,134.9-33v-94.2V551.6V70.4V27.1V6.6H232.6z"/>
	<polygon class="st8" points="306,784.5 171.7,672.4 307.4,688.3 306.8,693.9 189.7,680.2 309.6,780.2 	"/>
	<g>
		<g>
			<path class="st15" d="M221.7,781.7c0.1-3.4-2.7-6.3-6.1-6.3c-3.4-0.1-6.3,2.7-6.3,6.1c-0.1,3.4,2.7,6.3,6.1,6.3
				S221.6,785.1,221.7,781.7z"/>
		</g>
		<g>
			<path class="st15" d="M311.1,689.4c0.1-3.4-2.7-6.3-6.1-6.3c-3.4-0.1-6.3,2.7-6.3,6.1c-0.1,3.4,2.7,6.3,6.1,6.3
				C308.2,695.6,311,692.8,311.1,689.4z"/>
		</g>
		<g>
			<path class="st15" d="M311.1,779.2c0.1-3.4-2.7-6.3-6.1-6.3c-3.4-0.1-6.3,2.7-6.3,6.1c-0.1,3.4,2.7,6.3,6.1,6.3
				C308.2,785.3,311,782.6,311.1,779.2z"/>
		</g>
		<g>
			<path class="st15" d="M313.3,591.5c0.1-3.4-2.7-6.3-6.1-6.3c-3.4-0.1-6.3,2.7-6.3,6.1c-0.1,3.4,2.7,6.3,6.1,6.3
				C310.5,597.7,313.3,595,313.3,591.5z"/>
		</g>
		<g>
			<path class="st15" d="M313.3,471.2c0.1-3.4-2.7-6.3-6.1-6.3c-3.4-0.1-6.3,2.7-6.3,6.1c-0.1,3.4,2.7,6.3,6.1,6.3
				C310.5,477.4,313.3,474.6,313.3,471.2z"/>
		</g>
		<g>
			<path class="st15" d="M313.3,375.1c0.1-3.4-2.7-6.3-6.1-6.3c-3.4-0.1-6.3,2.7-6.3,6.1c-0.1,3.4,2.7,6.3,6.1,6.3
				C310.5,381.2,313.3,378.5,313.3,375.1z"/>
		</g>
		<g>
			<path class="st15" d="M313.3,235.4c0.1-3.4-2.7-6.3-6.1-6.3c-3.4-0.1-6.3,2.7-6.3,6.1c-0.1,3.4,2.7,6.3,6.1,6.3
				C310.5,241.5,313.3,238.8,313.3,235.4z"/>
		</g>
		<g>
			<path class="st15" d="M102.7,287.8c0.1-3.4-2.7-6.3-6.1-6.3c-3.4-0.1-6.3,2.7-6.3,6.1c-0.1,3.4,2.7,6.3,6.1,6.3
				C99.8,294,102.7,291.2,102.7,287.8z"/>
		</g>
		<g>
			<path class="st15" d="M101.5,215.4c0.1-3.4-2.7-6.3-6.1-6.3c-3.4-0.1-6.3,2.7-6.3,6.1c-0.1,3.4,2.7,6.3,6.1,6.3
				C98.7,221.6,101.5,218.9,101.5,215.4z"/>
		</g>
		<g>
			<path class="st15" d="M183.3,258.9c0.1-3.4-2.7-6.3-6.1-6.3c-3.4-0.1-6.3,2.7-6.3,6.1c-0.1,3.4,2.7,6.3,6.1,6.3
				C180.4,265.1,183.2,262.3,183.3,258.9z"/>
		</g>
		<g>
			<path class="st15" d="M211,174.6c0.1-3.4-2.7-6.3-6.1-6.3c-3.4-0.1-6.3,2.7-6.3,6.1c-0.1,3.4,2.7,6.3,6.1,6.3
				C208.2,180.7,211,178,211,174.6z"/>
		</g>
		<g>
			<path class="st15" d="M313.3,135.8c0.1-3.4-2.7-6.3-6.1-6.3c-3.4-0.1-6.3,2.7-6.3,6.1c-0.1,3.4,2.7,6.3,6.1,6.3
				C310.5,142,313.3,139.2,313.3,135.8z"/>
		</g>
		<g>
			<path class="st15" d="M183,332.3c0.1-3.4-2.7-6.3-6.1-6.3c-3.4-0.1-6.3,2.7-6.3,6.1c-0.1,3.4,2.7,6.3,6.1,6.3
				S182.9,335.7,183,332.3z"/>
		</g>
		<g>
			<path class="st16" d="M238.8,304.9c0.1-3.4-2.7-6.3-6.1-6.3c-3.4-0.1-6.3,2.7-6.3,6.1c-0.1,3.4,2.7,6.3,6.1,6.3
				S238.7,308.3,238.8,304.9z"/>
		</g>
		<g>
			<path class="st15" d="M182.4,381.7c0.1-3.4-2.7-6.3-6.1-6.3c-3.4-0.1-6.3,2.7-6.3,6.1c-0.1,3.4,2.7,6.3,6.1,6.3
				S182.4,385.1,182.4,381.7z"/>
		</g>
		<g>
			<path class="st15" d="M183,530.4c0.1-3.4-2.7-6.3-6.1-6.3c-3.4-0.1-6.3,2.7-6.3,6.1c-0.1,3.4,2.7,6.3,6.1,6.3
				S182.9,533.9,183,530.4z"/>
		</g>
		<g>
			<path class="st15" d="M183,675.5c0.1-3.4-2.7-6.3-6.1-6.3c-3.4-0.1-6.3,2.7-6.3,6.1c-0.1,3.4,2.7,6.3,6.1,6.3
				C180.1,681.7,182.9,679,183,675.5z"/>
		</g>
	</g>
	<g class="st17">
		<polygon class="st18" points="232.6,6.6 324.5,111.5 232.6,146.1 		"/>
		<path class="st19" d="M230.9,148.6V2.2l96.5,110.1L230.9,148.6z M234.2,11.1v132.6l87.4-32.9L234.2,11.1z"/>
	</g>
	<g>
		<polyline class="st20" points="232.6,6.6 324.5,111.5 386.5,6.6 		"/>
		<polygon class="st19" points="324.8,114.4 231.3,7.7 233.8,5.5 324.2,108.7 385,5.8 387.9,7.5 		"/>
	</g>
	<g class="st17">
		<polygon class="st18" points="459.4,6.6 386.5,6.6 324.5,111.5 459.4,164.9 		"/>
		<path class="st19" d="M461.1,167.3l-139-55L385.5,5h75.6V167.3z M326.9,110.7l130.8,51.7V8.3h-70.3L326.9,110.7z"/>
	</g>
	<g>
		<polyline class="st20" points="324.5,263.8 459.4,164.9 324.5,111.5 		"/>
		<polygon class="st19" points="325.5,265.1 323.5,262.4 455.9,165.3 323.9,113.1 325.1,110 462.8,164.4 		"/>
	</g>
	<g class="st17">
		<polygon class="st18" points="459.4,305.7 324.5,263.8 459.4,164.9 		"/>
		<path class="st19" d="M461.1,307.9l-140.3-43.6l140.3-102.8V307.9z M328.2,263.2l129.5,40.2V168.2L328.2,263.2z"/>
	</g>
	<g>
		<polyline class="st20" points="324.5,375 459.4,305.7 324.5,263.8 		"/>
		<polygon class="st19" points="325.3,376.4 323.7,373.5 455,306 324,265.4 325,262.2 463.8,305.3 		"/>
	</g>
	<g class="st17">
		<polygon class="st18" points="324.5,546 459.4,305.7 459.4,305.7 324.5,375 		"/>
		<path class="st19" d="M322.8,552.4V373.9l140.8-72.3L322.8,552.4z M326.2,376v163.6l129-229.8L326.2,376z"/>
	</g>
	<g class="st17">
		<polygon class="st18" points="459.4,561.4 324.5,546 459.4,459.7 		"/>
		<path class="st19" d="M461.1,563.3l-141.5-16.2l141.5-90.5V563.3z M329.4,544.8l128.3,14.7v-96.7L329.4,544.8z"/>
	</g>
	<g>
		<polyline class="st20" points="324.5,659.7 459.4,561.4 324.5,546 		"/>
		<polygon class="st19" points="325.5,661.1 323.5,658.4 454.9,562.6 324.3,547.6 324.7,544.3 463.9,560.2 		"/>
	</g>
	<g class="st17">
		<polygon class="st18" points="459.4,747.9 324.5,659.7 459.4,561.4 		"/>
		<path class="st19" d="M461.1,751l-139.5-91.2l139.5-101.7V751z M327.4,659.7l130.3,85.2V564.7L327.4,659.7z"/>
	</g>
	<g>
		<line class="st20" x1="459.4" y1="747.9" x2="324.5" y2="659.7"/>
		
			<rect x="390.3" y="623.2" transform="matrix(0.5472 -0.837 0.837 0.5472 -411.6357 646.7097)" class="st19" width="3.4" height="161.2"/>
	</g>
	<g>
		<polyline class="st20" points="457.4,305.7 327.5,544.1 457.9,459.4 		"/>
		<polygon class="st19" points="322.8,549.1 455.9,304.9 458.9,306.5 332.1,539.1 457,458 458.9,460.8 		"/>
	</g>
	<g>
		<circle class="st21" cx="234.5" cy="6.2" r="6.2"/>
	</g>
	<g>
		<circle class="st21" cx="234.5" cy="143.5" r="6.2"/>
	</g>
	<g>
		<circle class="st21" cx="323.6" cy="111.5" r="6.2"/>
	</g>
	<g>
		<circle class="st21" cx="386.5" cy="6.6" r="6.2"/>
	</g>
	<g>
		<circle class="st21" cx="459.4" cy="164.9" r="6.2"/>
	</g>
	<g>
		<circle class="st21" cx="324.5" cy="261.9" r="6.2"/>
	</g>
	<g>
		<circle class="st21" cx="456.6" cy="305.1" r="6.2"/>
	</g>
	<g>
		<circle class="st21" cx="324.5" cy="375" r="6.2"/>
	</g>
	<g>
		<circle class="st21" cx="324.9" cy="544.9" r="6.2"/>
	</g>
	<g>
		<circle class="st21" cx="459.4" cy="461.8" r="6.2"/>
	</g>
	<g>
		<circle class="st21" cx="459.4" cy="561.4" r="6.2"/>
	</g>
	<g>
		<circle class="st21" cx="324.9" cy="660" r="6.2"/>
	</g>
	<g>
		<circle class="st21" cx="459.3" cy="746.2" r="6.2"/>
	</g>
	<g>
		<circle class="st21" cx="325.8" cy="778.8" r="6.2"/>
	</g>
</g>
</svg>
