<?xml version="1.0" encoding="utf-8"?>
<!-- Generator: Adobe Illustrator 24.2.1, SVG Export Plug-In . SVG Version: 6.00 Build 0)  -->
<svg version="1.1" id="Camada_1" xmlns="http://www.w3.org/2000/svg" xmlns:xlink="http://www.w3.org/1999/xlink" x="0px" y="0px"
	 viewBox="0 0 1461.9 399.1" style="enable-background:new 0 0 1461.9 399.1;" xml:space="preserve">
<style type="text/css">
	.st0{fill:#E53B12;}
	.st1{fill:#476EB3;}
	.st2{fill:#00A04C;}
</style>
<g>
	<path class="st0" d="M179.8,342.1l59.5-81.8h79.9c19,0,41.4,0,56.6,1c-8.6-11.4-21.9-30.9-32.4-46.2l-57-84.2L137,342.1H20.4
		L224.5,54.2c13.3-18.6,32.8-35.7,63.8-35.7c29.5,0,49,15.7,62.8,35.7L550,342.1H179.8z"/>
	<path class="st1" d="M798.4,342.1H585.2V143.6h99v116.6h114.2c54.7,0,94.2-30.5,94.2-76.1c0-44.7-40.9-77.6-94.2-77.6H585.2
		L648,23.7h150.3C909.6,23.7,990,87.9,990,179.8C990.1,272.1,908.8,342.1,798.4,342.1z"/>
	<path class="st2" d="M1335.1,150.8c77.6,0,119.4,29,119.4,87.1c0,65.2-39.5,104.2-136.6,104.2h-296.4l63.3-81.8h240.7
		c23.3,0,33.8-6.7,33.8-23.3c0-16.2-10.5-22.8-33.8-22.8h-173.2c-81.8,0-119.4-36.6-119.4-91.4c0-60,40-99,136.6-99h276.4
		l-63.3,82.8h-220.8c-22.8,0-33.8,5.7-33.8,21.9s10.9,22.4,33.8,22.4h173.3V150.8z"/>
</g>
</svg>
