<svg width="17" height="20" viewBox="0 0 17 20" fill="none" xmlns="http://www.w3.org/2000/svg">
<path fill-rule="evenodd" clip-rule="evenodd" d="M6.97674 1.39535C6.97674 0.623256 7.6 0 8.37209 0C9.14419 0 9.76744 0.623256 9.76744 1.39535V2.48372C12.6884 3.11628 14.8837 5.72093 14.8837 8.83721V14.4186L16.7442 16.2791V17.2093H0V16.2791L1.86047 14.4186V8.83721C1.86047 5.72093 4.05581 3.11628 6.97674 2.48372V1.39535ZM8.37209 4.18605C10.9395 4.18605 13.0233 6.26977 13.0233 8.83721V15.3488H3.72093V8.83721C3.72093 6.26977 5.80465 4.18605 8.37209 4.18605ZM6.52094 18.1488C6.52094 19.1721 7.34885 20 8.3721 20C9.39536 20 10.2233 19.1721 10.2233 18.1488H6.52094Z" fill="#777986"/>
</svg>
