<svg width="24" height="24" viewBox="0 0 24 24" fill="none" xmlns="http://www.w3.org/2000/svg">
<path d="M9.33333 9.12772H14.6667M9.33333 12.0578H12H14.6667M7.83333 17.3046L5.09167 19.8318C4.99454 19.9201 4.87662 19.9764 4.75158 19.994C4.62654 20.0117 4.49951 19.99 4.38523 19.9315C4.27094 19.8731 4.17409 19.7802 4.10591 19.6637C4.03772 19.5472 4.001 19.4118 4 19.2733V4.73253C4 4.53825 4.07024 4.35193 4.19526 4.21455C4.32029 4.07718 4.48986 4 4.66667 4H19.3333C19.5101 4 19.6797 4.07718 19.8047 4.21455C19.9298 4.35193 20 4.53825 20 4.73253V16.453C20 16.6473 19.9298 16.8336 19.8047 16.971C19.6797 17.1084 19.5101 17.1856 19.3333 17.1856H8.14167L7.83333 17.3046Z" stroke="white" stroke-width="2" stroke-linecap="round" stroke-linejoin="round"/>
</svg>
