<svg width="48" height="12" viewBox="0 0 48 12" fill="none" xmlns="http://www.w3.org/2000/svg">
<path d="M5.33503 11.4147L7.32561 8.67546H10.0011C10.6381 8.67546 11.3866 8.67546 11.8963 8.70729C11.6096 8.32513 11.1636 7.6722 10.8133 7.16244L8.90222 4.34372L3.90173 11.4147H0L6.83185 1.77986C7.2778 1.15873 7.9305 0.585449 8.96589 0.585449C9.95325 0.585449 10.6061 1.11096 11.0681 1.77986L17.7248 11.4147H5.33503Z" fill="white"/>
<path d="M26.0386 11.4146H18.904V4.7738H22.2165V8.67545H26.0386C27.87 8.67545 29.1918 7.65623 29.1918 6.12746C29.1918 4.63045 27.8223 3.53162 26.0386 3.53162H18.904L21.0062 0.760627H26.0386C29.7651 0.760627 32.4564 2.91056 32.4564 5.98411C32.4564 9.07363 29.7332 11.4146 26.0386 11.4146Z" fill="white"/>
<path d="M44.0029 5.01261C46.5987 5.01261 48 5.98411 48 7.92702C48 10.1087 46.6782 11.4146 43.4295 11.4146H33.5081L35.6261 8.67545H43.6841C44.4645 8.67545 44.8148 8.45258 44.8148 7.89515C44.8148 7.35363 44.4645 7.13079 43.6841 7.13079H37.8877C35.1485 7.13079 33.8905 5.90446 33.8905 4.07314C33.8905 2.06644 35.2282 0.760627 38.4611 0.760627H47.7137L45.5956 3.53162H38.206C37.4416 3.53162 37.0753 3.72285 37.0753 4.26422C37.0753 4.80559 37.4416 5.01261 38.206 5.01261H44.0029Z" fill="white"/>
</svg>
