<svg width="24" height="24" viewBox="0 0 24 24" fill="none" xmlns="http://www.w3.org/2000/svg">
<path d="M7.8 6.66667V4.66667C7.8 4.48986 7.87375 4.32029 8.00503 4.19526C8.1363 4.07024 8.31435 4 8.5 4H15.5L19 7.33333V16.6667C19 16.8435 18.9263 17.013 18.795 17.1381C18.6637 17.2631 18.4857 17.3333 18.3 17.3333H16.2M8.5 14H12.7M8.5 16.6667H12.7M15.5 20H5.7C5.51435 20 5.3363 19.9298 5.20503 19.8047C5.07375 19.6797 5 19.5101 5 19.3333V7.33333C5 7.15652 5.07375 6.98695 5.20503 6.86193C5.3363 6.7369 5.51435 6.66667 5.7 6.66667H12.7L16.2 10V19.3333C16.2 19.5101 16.1263 19.6797 15.995 19.8047C15.8637 19.9298 15.6857 20 15.5 20Z" stroke="white" stroke-width="1.5" stroke-linecap="round" stroke-linejoin="round"/>
</svg>
